<svg width="36" height="36" viewBox="0 0 36 36" fill="none" xmlns="http://www.w3.org/2000/svg">
<path d="M35.5601 33.4405L25.3227 23.203C27.3057 20.7535 28.4997 17.641 28.4997 14.251C28.4997 6.394 22.1067 0.000976562 14.2498 0.000976562C6.39288 0.000976562 0 6.39393 0 14.2509C0 22.1079 6.39295 28.501 14.2499 28.501C17.6398 28.501 20.7523 27.307 23.2017 25.324L33.4391 35.5615C33.7316 35.854 34.1156 36.001 34.4996 36.001C34.8837 36.001 35.2677 35.854 35.5602 35.5615C36.1466 34.975 36.1466 34.027 35.5601 33.4405ZM14.2499 25.5009C8.04591 25.5009 2.99999 20.455 2.99999 14.2509C2.99999 8.04691 8.04591 3.00093 14.2499 3.00093C20.4538 3.00093 25.4997 8.04691 25.4997 14.2509C25.4997 20.455 20.4538 25.5009 14.2499 25.5009Z" fill="#53535F"/>
</svg>
