<svg width="33" height="33" viewBox="0 0 33 33" fill="none" xmlns="http://www.w3.org/2000/svg">
<path d="M23.7938 11.2644C24.2973 11.768 24.2973 12.5842 23.7938 13.0875L15.146 21.7356C14.6424 22.2388 13.8265 22.2388 13.3229 21.7356L9.20622 17.6186C8.70268 17.1153 8.70268 16.2991 9.20622 15.7958C9.70951 15.2923 10.5257 15.2923 11.029 15.7958L14.2343 19.0011L21.9707 11.2644C22.4743 10.7612 23.2905 10.7612 23.7938 11.2644V11.2644ZM33 16.5C33 25.6204 25.6191 33 16.5 33C7.37963 33 0 25.6191 0 16.5C0 7.37963 7.38089 0 16.5 0C25.6204 0 33 7.38089 33 16.5ZM30.4219 16.5C30.4219 8.80465 24.1943 2.57812 16.5 2.57812C8.80465 2.57812 2.57812 8.80566 2.57812 16.5C2.57812 24.1954 8.80566 30.4219 16.5 30.4219C24.1954 30.4219 30.4219 24.1943 30.4219 16.5Z" fill="#53535F"/>
</svg>
