<svg width="37" height="32" viewBox="0 0 37 32" fill="none" xmlns="http://www.w3.org/2000/svg">
<path d="M36.3762 14.6945L30.7223 3.30353C30.5731 3.02781 30.2875 2.85323 29.974 2.84623L29.5999 2.92938H22.2831C21.7422 0.84005 19.61 -0.415205 17.5206 0.125648C16.1461 0.481496 15.0727 1.55485 14.7169 2.92938H7.40012L7.02597 2.84623C6.71253 2.85323 6.42687 3.02781 6.27767 3.30353L0.623808 14.6945C0.253398 14.7741 -0.00823649 15.1056 0.00019819 15.4844C0.00019819 18.9765 3.1597 21.845 7.02597 21.845C10.8922 21.845 14.0933 18.9765 14.0933 15.4844C14.0864 15.1109 13.8314 14.7878 13.4697 14.6945L8.43949 4.59229H14.6753C14.9897 6.09613 16.1647 7.27109 17.6685 7.58549V22.1775C14.9663 22.5101 12.8461 24.5471 12.5135 26.6257H10.6843C10.1964 26.665 9.80894 27.0524 9.76971 27.5403V30.8662C9.81307 31.3233 10.2189 31.6587 10.676 31.6152C10.6788 31.615 10.6815 31.6147 10.6843 31.6145H26.3156C26.7723 31.6624 27.1814 31.3311 27.2293 30.8744C27.2297 30.8716 27.2299 30.8689 27.2301 30.8662V27.5403C27.1909 27.0524 26.8035 26.665 26.3155 26.6257H24.4863C24.1537 24.5471 22.0335 22.5101 19.3313 22.1775V7.58556C20.8351 7.27117 22.0101 6.09621 22.3245 4.59237H28.5603L23.5301 14.6945C23.1684 14.7878 22.9133 15.1109 22.9065 15.4844C22.9065 18.9765 26.066 21.845 29.9738 21.845C33.8816 21.845 36.9996 18.9765 36.9996 15.4844C37.0083 15.1056 36.7466 14.7741 36.3762 14.6945ZM7.02597 20.0989C4.40692 20.0989 2.20356 18.3113 1.74626 16.2326H12.3473C11.89 18.3113 9.68663 20.0989 7.02597 20.0989ZM11.599 14.5697H2.49456L7.02597 5.46536L11.599 14.5697ZM25.5674 28.2886V29.9515H11.4327V28.2886H25.5674ZM22.782 26.6257H14.218C14.5507 24.9628 16.3383 23.7157 18.5 23.7157C20.6617 23.7157 22.4494 24.9628 22.782 26.6257ZM18.5 6.04735C17.2602 6.04735 16.2551 5.04227 16.2551 3.80245C16.2551 2.56263 17.2602 1.55755 18.5 1.55755C19.7398 1.55755 20.7449 2.56263 20.7449 3.80245C20.745 5.04227 19.7398 6.04735 18.5 6.04735ZM29.974 5.46536L34.5054 14.5697H25.4011L29.974 5.46536ZM29.974 20.0989C27.3134 20.0989 25.11 18.3113 24.6528 16.2326H35.2537C34.7964 18.3113 32.5932 20.0989 29.974 20.0989Z" fill="#53535F"/>
</svg>
