<svg width="33" height="33" viewBox="0 0 33 33" fill="none" xmlns="http://www.w3.org/2000/svg">
<path d="M16.5 26.0068C17.3899 26.0068 18.1113 25.2854 18.1113 24.3955C18.1113 23.5056 17.3899 22.7842 16.5 22.7842C15.6101 22.7842 14.8887 23.5056 14.8887 24.3955C14.8887 25.2854 15.6101 26.0068 16.5 26.0068Z" fill="#232B35"/>
<path d="M16.5 0C7.38091 0 0 7.37969 0 16.5C0 25.6191 7.37969 33 16.5 33C25.6191 33 33 25.6203 33 16.5C33 7.38091 25.6203 0 16.5 0ZM16.5 30.4219C8.80578 30.4219 2.57812 24.1953 2.57812 16.5C2.57812 8.80578 8.80475 2.57812 16.5 2.57812C24.1942 2.57812 30.4219 8.80475 30.4219 16.5C30.4219 24.1942 24.1953 30.4219 16.5 30.4219Z" fill="#232B35"/>
<path d="M16.5 8.28223C13.6568 8.28223 11.3438 10.5953 11.3438 13.4385C11.3438 14.1504 11.9209 14.7275 12.6328 14.7275C13.3448 14.7275 13.9219 14.1504 13.9219 13.4385C13.9219 12.0169 15.0784 10.8604 16.5 10.8604C17.9216 10.8604 19.0781 12.0169 19.0781 13.4385C19.0781 14.8601 17.9216 16.0166 16.5 16.0166C15.7881 16.0166 15.2109 16.5937 15.2109 17.3057V20.5283C15.2109 21.2403 15.7881 21.8174 16.5 21.8174C17.2119 21.8174 17.7891 21.2403 17.7891 20.5283V18.4316C20.0105 17.8578 21.6562 15.8367 21.6562 13.4385C21.6562 10.5953 19.3432 8.28223 16.5 8.28223Z" fill="#232B35"/>
</svg>
