<svg width="36" height="36" viewBox="0 0 36 36" fill="none" xmlns="http://www.w3.org/2000/svg">
<path d="M35.7744 9.44051L26.5595 0.225554C26.2588 -0.0751847 25.7729 -0.0751847 25.4722 0.225554L0.225554 25.4722C-0.0751847 25.7729 -0.0751847 26.2588 0.225554 26.5595L9.44051 35.7744C9.74124 36.0752 10.2271 36.0752 10.5278 35.7744L35.7744 10.5278C36.0752 10.2271 36.0752 9.74124 35.7744 9.44051ZM9.98029 34.1397L1.86034 26.0197L7.95994 19.9201L10.7283 22.6884C11.0213 22.9969 11.5148 23.0046 11.8156 22.7039C12.124 22.4108 12.1317 21.9173 11.831 21.6166C11.8233 21.6089 11.8233 21.6089 11.8156 21.6012L9.04723 18.8405L11.0599 16.8279L15.3782 21.1462C15.6789 21.4469 16.1724 21.4469 16.4655 21.1385C16.7662 20.8377 16.7662 20.3519 16.4655 20.0512L12.1472 15.7329L14.1598 13.7203L16.9281 16.4809C17.2289 16.7816 17.7147 16.7816 18.0154 16.4809C18.3162 16.1801 18.3162 15.6943 18.0154 15.3936L15.2471 12.633L17.2597 10.6203L21.578 14.9386C21.8788 15.2394 22.3646 15.2394 22.6653 14.9386C22.966 14.6379 22.966 14.1521 22.6653 13.8513L18.347 9.53304L20.3596 7.5204L23.128 10.2887C23.4287 10.5895 23.9145 10.5972 24.2153 10.2965C24.516 9.99571 24.5237 9.50991 24.223 9.20917C24.223 9.20917 24.223 9.20917 24.2153 9.20146L21.4701 6.40998L23.4827 4.39734L27.801 8.71565C28.1017 9.01639 28.5876 9.01639 28.8883 8.71565C29.189 8.41491 29.189 7.9291 28.8883 7.62836L24.57 3.31006L26.0197 1.86034L34.1397 9.98029L9.98029 34.1397Z" fill="#53535F"/>
<path d="M10.5896 25.5493C9.61794 24.5854 8.05256 24.5854 7.08865 25.5493C6.12475 26.5209 6.12475 28.0863 7.08865 29.0502C8.05256 30.0141 9.62565 30.0141 10.5896 29.0502C11.5535 28.0863 11.5535 26.5209 10.5896 25.5493ZM9.57939 27.9398C9.56396 27.9552 9.54083 27.9784 9.49456 27.9706C9.13213 28.3331 8.53837 28.3331 8.16823 27.9706C7.8058 27.6082 7.8058 27.0145 8.16823 26.6443C8.53066 26.2819 9.12442 26.2819 9.49456 26.6443C9.87242 26.9913 9.92639 27.562 9.57939 27.9398Z" fill="#53535F"/>
</svg>
