<svg width="83" height="59" viewBox="0 0 83 59" fill="none" xmlns="http://www.w3.org/2000/svg">
<path d="M21.6638 24.631L2 12.9017L81 1L45.1223 57.4039L32.3581 34.9804L21.6638 35.6703V24.631Z" fill="#FBF1C0"/>
<path d="M21.6638 24.631L2 12.9017L81 1M21.6638 24.631V35.6703M21.6638 24.631L81 1M21.6638 35.6703L32.3581 34.9804M21.6638 35.6703L81 1M32.3581 34.9804L45.1223 57.4039L81 1M32.3581 34.9804L81 1" stroke="#101127"/>
<path d="M32.2194 34.5165L24 35L75 5L32.7309 34.3397C32.5799 34.4445 32.4029 34.5057 32.2194 34.5165Z" fill="#D6CEA6"/>
</svg>
