<svg width="36" height="37" viewBox="0 0 36 37" fill="none" xmlns="http://www.w3.org/2000/svg">
<path d="M7.78796 14.3717L7.78796 14.3717C8.42575 9.91468 12.4433 5.77308 17.9998 5.77308C23.6563 5.77308 28.3751 10.2187 28.3826 15.781V15.7812C28.3826 18.2872 27.4218 20.7106 25.585 22.5849C23.9819 24.2238 23.1369 26.5509 23.1369 29.1086V29.109L23.1295 33.0906L7.78796 14.3717ZM7.78796 14.3717L7.78771 14.3735M7.78796 14.3717L7.78771 14.3735M7.78771 14.3735C7.39019 17.3437 8.35092 20.2381 10.3434 22.4253L10.3434 22.4253M7.78771 14.3735L10.3434 22.4253M10.3434 22.4253L10.3452 22.4273M10.3434 22.4253L10.3452 22.4273M10.3452 22.4273C12.0285 24.2257 12.9507 26.6301 12.9508 29.1082C12.9508 29.1083 12.9508 29.1085 12.9508 29.1086L12.9435 33.0903V33.0906M10.3452 22.4273L12.9435 33.0906M12.9435 33.0906C12.9435 34.8143 14.367 36.2 16.119 36.2M12.9435 33.0906L16.119 36.2M16.119 36.2H19.954M16.119 36.2H19.954M19.954 36.2C21.7058 36.2 23.1293 34.8145 23.1295 33.091L19.954 36.2ZM21.2308 33.0906V33.2223C21.1647 33.811 20.6601 34.2718 20.0275 34.2718H16.1924C15.5126 34.2718 14.9818 33.7475 14.9818 33.0906V31.5274H21.2308V33.0906ZM21.172 29.1086V29.5992H14.923V29.1086C14.923 26.2186 13.726 23.343 11.7411 21.1641L11.7411 21.1641L11.7393 21.1621C10.0635 19.3717 9.37469 17.0597 9.67551 14.6624C10.2137 11.0829 13.5495 7.70859 18.0071 7.70859C22.6786 7.70859 26.4177 11.3797 26.4177 15.7812C26.4177 17.7939 25.6517 19.7348 24.2042 21.2327C22.2089 23.2659 21.172 26.0734 21.172 29.1086Z" fill="#53535F" stroke="#53535F" stroke-width="0.4"/>
<path d="M18.7788 0H17.2139V3.67347H18.7788V0Z" fill="#53535F"/>
<path d="M27.4849 7.08247L28.5796 8.17716L31.2612 5.59839L30.1591 4.50369L27.4849 7.08247Z" fill="#53535F"/>
<path d="M36.0001 16.5453H32.165V18.0808H36.0001V16.5453Z" fill="#53535F"/>
<path d="M3.83508 16.5453H0V18.0808H3.83508V16.5453Z" fill="#53535F"/>
<path d="M5.81151 4.49631L4.70947 5.591L7.39109 8.16978L8.48578 7.07508L5.81151 4.49631Z" fill="#53535F"/>
</svg>
