<svg width="36" height="36" viewBox="0 0 36 36" fill="none" xmlns="http://www.w3.org/2000/svg">
<path d="M35.3822 13.1363L33.6215 11.3756C32.799 10.5531 31.4608 10.5533 30.6383 11.3756L26.9297 15.0843V3.16406C26.9297 1.4194 25.5103 0 23.7656 0H3.16406C1.4194 0 0 1.4194 0 3.16406V32.8359C0 34.5806 1.4194 36 3.16406 36H23.7656C25.5103 36 26.9297 34.5806 26.9297 32.8359V24.4664L35.3822 16.1195C36.2046 15.297 36.2046 13.9588 35.3822 13.1363ZM22.7682 25.6114L19.5955 27.092L21.0747 23.9225L28.9479 16.0492L30.6887 17.7899L22.7682 25.6114ZM24.8203 32.8359C24.8203 33.4175 24.3472 33.8906 23.7656 33.8906H3.16406C2.58251 33.8906 2.10938 33.4175 2.10938 32.8359V3.16406C2.10938 2.58251 2.58251 2.10938 3.16406 2.10938H23.7656C24.3472 2.10938 24.8203 2.58251 24.8203 3.16406V17.1937C18.9718 23.0422 19.3537 22.622 19.2417 22.862L16.4575 28.8283C16.27 29.2302 16.3538 29.7065 16.6674 30.0201C16.981 30.3337 17.4575 30.4175 17.8592 30.23L23.8255 27.4457C24.0443 27.3436 24.0803 27.2802 24.8203 26.5494V32.8359ZM32.1895 16.3078L30.4394 14.5577L32.1299 12.8672L33.8901 14.6284L32.1895 16.3078Z" fill="#53535F"/>
<path d="M5.625 8.92969H21.375C21.9575 8.92969 22.4297 8.45747 22.4297 7.875C22.4297 7.29253 21.9575 6.82031 21.375 6.82031H5.625C5.04253 6.82031 4.57031 7.29253 4.57031 7.875C4.57031 8.45747 5.04253 8.92969 5.625 8.92969Z" fill="#53535F"/>
<path d="M5.625 14.5547H18C18.5825 14.5547 19.0547 14.0825 19.0547 13.5C19.0547 12.9175 18.5825 12.4453 18 12.4453H5.625C5.04253 12.4453 4.57031 12.9175 4.57031 13.5C4.57031 14.0825 5.04253 14.5547 5.625 14.5547Z" fill="#53535F"/>
<path d="M14.625 18.0703H5.625C5.04253 18.0703 4.57031 18.5425 4.57031 19.125C4.57031 19.7075 5.04253 20.1797 5.625 20.1797H14.625C15.2075 20.1797 15.6797 19.7075 15.6797 19.125C15.6797 18.5425 15.2075 18.0703 14.625 18.0703Z" fill="#53535F"/>
</svg>
