<svg width="470" height="304" viewBox="0 0 470 304" fill="none" xmlns="http://www.w3.org/2000/svg">
<path fill-rule="evenodd" clip-rule="evenodd" d="M29 -245.518L44.203 -253.944L150.289 -190.498L167.059 -180.381L174.429 -175.923L183.394 -170.49C192.678 -164.842 202.5 -158.758 212.074 -152.232C213.421 -151.315 214.763 -150.388 216.101 -149.451C221.532 -145.614 226.784 -141.528 231.84 -137.208C236.798 -132.972 241.55 -128.502 246.08 -123.812C254.966 -114.571 263.55 -104.028 272.324 -91.582C277.704 -83.95 283.047 -76.004 288.271 -68.165L292.164 -62.312C293.645 -60.084 295.126 -57.855 296.61 -55.63L298.039 -53.5C306.58 -40.837 314.545 -30.39 322.344 -21.616C331.541 -11.266 341.537 -2.75101 352.074 3.716L353.184 4.388C364.13 10.934 376.773 15.938 390.762 19.258C403.022 22.171 416.485 24.271 433.13 25.865L447.667 27.247C457.298 28.169 467.084 29.15 476.607 30.331C491.827 32.218 505.281 34.865 517.737 38.422C530.229 42.006 542.71 46.932 554.829 53.055C565.451 58.465 575.843 64.382 585.618 70.101L589.315 72.271C599.548 78.304 609.755 84.355 619.947 90.4L726.51 154.115L726.205 171.455L615.318 105.136C610.458 102.251 605.592 99.366 600.722 96.482L589.27 89.707L581.532 85.137L578.947 83.62C567.429 76.882 557.397 71.266 546.824 66.14C534.532 60.22 521.672 55.664 508.604 52.601C495.976 49.643 482.077 47.56 466.109 46.233C458.874 45.632 451.493 45.118 444.214 44.636L430.416 43.729L421.753 43.145C419.747 43.0046 417.741 42.8499 415.737 42.681C401.94 41.515 389.935 39.776 379.189 37.391C365.659 34.389 353.444 29.734 342.87 23.551L341.831 22.934C331.142 16.512 321.051 7.83902 311.833 -2.84399C303.643 -12.337 295.44 -23.651 286.751 -37.434C284.837 -40.4709 282.931 -43.5126 281.032 -46.559L274.508 -57.025C270.808 -62.951 267.038 -68.947 263.266 -74.78C254.638 -88.125 246.338 -99.318 237.893 -108.998C229.133 -119.038 219.196 -128.182 208.359 -136.176C197.636 -144.029 186.323 -151.099 175.695 -157.57C167.582 -162.5 159.471 -167.4 151.374 -172.286L142.533 -177.618L28.999 -245.518H29ZM61.422 -263.497L159.022 -205.126C167.286 -200.146 175.568 -195.156 183.857 -190.142L192.147 -185.119C202.081 -179.088 213.755 -171.901 225.015 -164.323C236.177 -156.77 246.525 -148.556 255.772 -139.908C265.168 -131.088 274.428 -120.959 283.297 -109.799C290.702 -100.482 297.996 -90.615 305.099 -80.909L308.78 -75.872C318.505 -62.56 326.944 -52.192 335.338 -43.246C344.701 -33.265 354.76 -24.951 365.258 -18.513L366.463 -17.783C377.403 -11.245 389.933 -6.07001 403.703 -2.39999C415.567 0.76001 428.759 3.30002 445.222 5.59601L451.202 6.431C463.212 8.117 475.478 9.901 487.461 12.094C501.593 14.681 515.003 18.121 527.313 22.317C539.567 26.517 551.471 31.706 563.703 38.184C575.739 44.579 587.302 51.298 598.006 57.606L607.031 62.942C611.84 65.786 616.647 68.632 621.446 71.478L630.652 76.941L665.084 97.529L726.836 134.461L726.532 151.799L635.415 97.303L634.409 96.703C630.977 94.651 627.553 92.603 624.117 90.546C616.619 86.098 609.119 81.648 601.607 77.205L590.262 70.508L586.617 68.368C576.817 62.635 566.397 56.701 555.726 51.268C543.497 45.088 530.899 40.118 518.279 36.495C505.725 32.91 492.172 30.242 476.846 28.343C466.111 27.011 455.056 25.933 444.263 24.91L433.314 23.871C416.764 22.285 403.389 20.201 391.217 17.309C377.812 14.121 365.668 9.37799 355.106 3.20099L354.016 2.55499C343.315 -3.875 333.163 -12.452 323.846 -22.94C315.657 -32.156 307.296 -43.21 298.281 -56.735L296.057 -60.075L293.837 -63.415C287.381 -73.126 280.707 -83.168 273.967 -92.73C265.133 -105.257 256.485 -115.876 247.527 -125.196C243.201 -129.67 238.674 -133.945 233.961 -138.009C228.606 -142.639 223.027 -147.005 217.246 -151.091C215.887 -152.043 214.522 -152.987 213.15 -153.921C203.5 -160.497 193.694 -166.568 184.44 -172.195L183.105 -173.003C178.1 -176.041 173.092 -179.073 168.081 -182.1L151.269 -192.244L46.219 -255.069L61.422 -263.497ZM78.6541 -273.049L167.766 -219.756C176.035 -214.777 184.32 -209.789 192.613 -204.778L203.966 -197.904C212.632 -192.636 223.326 -186.054 233.926 -179.183C240.346 -174.993 246.349 -170.793 252.046 -166.513L254.316 -164.801L254.868 -164.371C258.488 -161.585 261.99 -158.762 265.388 -155.879C275.158 -147.579 284.869 -138.186 294.248 -127.959C296.445 -125.558 298.62 -123.136 300.773 -120.694L302.401 -118.839C307.293 -113.245 312.246 -107.376 317.599 -100.931L321.988 -95.631L322.74 -94.726C332.512 -82.97 340.864 -73.742 348.9 -65.814C350.451 -64.2859 352.03 -62.7867 353.637 -61.317L354.834 -60.227C355.384 -59.729 355.931 -59.217 356.485 -58.728L357.397 -57.946C364.43 -51.818 371.694 -46.436 379.105 -41.894L380.428 -41.094C391.348 -34.566 403.72 -29.154 417.2 -25.004C419.321 -24.35 421.497 -23.71 423.739 -23.077L425.521 -22.579C434.503 -20.099 444.533 -17.755 456.374 -15.361L457.564 -15.121C470.674 -12.493 484.682 -9.58102 498.276 -6.10501C499.967 -5.67001 501.65 -5.224 503.323 -4.76801C515.034 -1.57101 526.283 2.15198 536.826 6.32199C548.549 10.985 560.242 16.546 572.572 23.32C579.014 26.882 585.476 30.557 591.844 34.21L600.702 39.304L606.832 42.834L727.195 114.82L726.893 132.156L632.894 75.936L622.469 69.76C617.667 66.91 612.857 64.064 608.043 61.217C605.036 59.437 602.041 57.655 599.028 55.878L595.422 53.758C585.725 48.068 575.379 42.115 564.647 36.411C552.322 29.885 540.324 24.653 527.967 20.421C515.562 16.191 502.057 12.727 487.827 10.122C474.808 7.74002 461.473 5.84003 448.494 4.02802L445.506 3.61099C429.123 1.327 416.007 -1.19998 404.226 -4.33899C390.636 -7.95898 378.279 -13.062 367.498 -19.505L367.244 -19.657C356.561 -26.077 346.321 -34.473 336.803 -44.618C328.873 -53.071 320.896 -62.81 311.81 -75.138L310.334 -77.15L306.784 -82.009C299.649 -91.759 292.321 -101.674 284.871 -111.049C275.933 -122.292 266.605 -132.493 257.146 -141.372C247.821 -150.093 237.39 -158.374 226.142 -165.986C214.952 -173.52 203.693 -180.458 193.192 -186.834C185.092 -191.75 176.995 -196.637 168.912 -201.511L160.022 -206.868L63.452 -264.622L78.6541 -273.049ZM80.678 -274.169L95.882 -282.597L209.719 -214.512L214.495 -211.559L225.108 -205.009C231.02 -201.363 236.917 -197.692 242.798 -193.996C254.815 -186.373 265.309 -179.066 274.881 -171.661C284.901 -163.906 295.022 -155.183 304.966 -145.737L306.646 -144.131C315.864 -135.284 324.652 -126.25 331.671 -118.924L336.075 -114.324C343.484 -106.622 352.766 -97.223 362.519 -88.456C364.404 -86.7671 366.317 -85.1105 368.258 -83.487C376.366 -76.664 384.664 -70.634 393.019 -65.526L394.523 -64.613C405.379 -58.12 417.563 -52.426 430.738 -47.686C443.153 -43.218 455.875 -39.47 466.204 -36.576L472.886 -34.716C487.306 -30.693 498.505 -27.326 508.859 -23.907C521.917 -19.586 534.491 -14.731 546.23 -9.47699C557.359 -4.46698 568.87 1.41501 581.423 8.508C587.341 11.874 593.31 15.318 599.179 18.716L612.061 26.181C613.235 26.861 614.408 27.539 615.579 28.215L727.533 95.172L727.231 112.507L607.851 41.107L601.442 37.422L595.326 33.901C588.147 29.773 580.831 25.599 573.536 21.568C561.111 14.741 549.344 9.146 537.563 4.46201C536.047 3.862 534.517 3.27197 532.973 2.69199C522.163 -1.375 510.683 -4.979 498.773 -8.04199C489.679 -10.367 480.413 -12.435 471.352 -14.338C468.33 -14.973 465.33 -15.591 462.368 -16.192L456.718 -17.333L454.31 -17.825C442.795 -20.201 433.034 -22.531 424.295 -24.998C422.066 -25.627 419.902 -26.266 417.789 -26.917C404.449 -31.025 392.224 -36.372 381.454 -42.81L381.194 -42.966C370.521 -49.379 360.129 -57.544 350.304 -67.237L349.132 -68.402C341.299 -76.229 333.099 -85.36 323.495 -96.947L320.878 -100.11C311.808 -111.06 303.945 -120.333 295.722 -129.31C286.29 -139.596 276.52 -149.048 266.682 -157.403C264.994 -158.834 263.288 -160.245 261.566 -161.635L259.334 -163.425C257.654 -164.752 255.961 -166.061 254.253 -167.352C248.223 -171.92 241.856 -176.396 235.016 -180.86L233.128 -182.08C221.8 -189.381 210.579 -196.238 201.944 -201.47C190.881 -208.174 179.824 -214.83 168.766 -221.488L80.678 -274.17V-274.169ZM113.108 -292.143L218.465 -229.131L225.397 -224.873L232.34 -220.619C238.773 -216.68 245.21 -212.736 251.639 -208.759L253.863 -207.373C265.598 -200.034 275.298 -193.598 284.233 -187.223C294.6 -179.823 305.075 -171.676 315.369 -163.006L317.121 -161.526C327.026 -153.126 336.546 -144.584 344.058 -137.767L347.942 -134.243C355.695 -127.226 365.424 -118.595 375.648 -110.287C385.982 -101.892 396.064 -94.724 406.41 -88.422L407.928 -87.505L408.151 -87.371C419.107 -80.821 430.761 -74.995 443.777 -69.561L445.904 -68.68C457.607 -63.858 469.381 -59.549 478.897 -56.158L485.727 -53.728C495.508 -50.234 507.414 -45.884 519.141 -41.211C531.757 -36.181 543.988 -30.741 555.491 -25.042L557.358 -24.112C567.342 -19.104 577.85 -13.396 590.236 -6.25699C594.628 -3.715 599.011 -1.16299 603.39 1.392L609.957 5.22601C614.747 8.02402 619.534 10.821 624.315 13.599L727.88 75.539L727.578 92.869L616.597 26.492L611.454 23.517L597.425 15.387C592.445 12.507 587.413 9.60901 582.413 6.76501C569.806 -0.357971 558.24 -6.26797 547.055 -11.304C535.255 -16.585 522.616 -21.465 509.493 -25.808L507.319 -26.52C495.001 -30.53 482.728 -34.053 472.843 -36.808L466.645 -38.533C456.34 -41.425 443.686 -45.157 431.42 -49.569C418.821 -54.102 407.138 -59.516 396.671 -65.669L395.189 -66.549C384.575 -72.927 374.037 -80.796 363.862 -89.943C354.111 -98.716 344.874 -108.068 337.511 -115.725L331.909 -121.572C324.661 -129.12 315.698 -138.29 306.349 -147.188C296.353 -156.684 286.178 -165.451 276.111 -173.245C266.52 -180.668 255.976 -188.01 243.872 -195.689C237.025 -200.001 230.061 -204.309 223.257 -208.507L220.352 -210.299C217.158 -212.27 213.965 -214.239 210.765 -216.221L97.91 -283.72L113.109 -292.143H113.108ZM130.332 -301.692L260.603 -223.782C263.292 -222.038 265.985 -220.301 268.683 -218.572L272.733 -215.977C279.542 -211.617 286.583 -207.107 293.438 -202.542C303.308 -195.966 313.391 -188.812 323.435 -181.253L325.443 -179.736C335.008 -172.484 344.44 -164.996 352.25 -158.718L360.09 -152.401C368.077 -145.981 377.892 -138.211 387.949 -130.737C399.157 -122.399 409.955 -115.138 420.879 -108.616C431.832 -102.065 443.322 -95.99 456.001 -90.046L458.07 -89.08C468.419 -84.27 478.796 -79.773 487.528 -76.065L497.476 -71.86C509.932 -66.58 519.846 -62.23 529.122 -57.983C541.466 -52.309 553.414 -46.387 564.634 -40.378C570.083 -37.458 575.557 -34.432 580.935 -31.435L592.747 -24.845C594.902 -23.647 597.054 -22.454 599.203 -21.271L728.212 55.887L727.909 73.217L625.342 11.873L618.29 7.76599L611.241 3.651C606.803 1.06 602.364 -1.53299 597.919 -4.11899L591.242 -7.992L588.932 -9.31799C576.732 -16.306 566.335 -21.9 556.387 -26.835C544.878 -32.54 532.598 -38.002 519.887 -43.071L517.784 -43.905C506.569 -48.33 495.453 -52.385 486.267 -55.665L476.938 -58.986C467.361 -62.421 455.863 -66.686 444.553 -71.408C432.339 -76.506 420.883 -82.193 410.479 -88.321L408.741 -89.354C398.45 -95.538 388.439 -102.568 378.196 -110.806L376.915 -111.842C368.835 -118.406 360.385 -125.702 349.856 -135.215L342.525 -141.859C334.989 -148.665 325.89 -156.765 316.663 -164.536C306.293 -173.267 295.777 -181.448 285.401 -188.854L283.712 -190.053C274.653 -196.454 264.74 -202.976 252.698 -210.461C248.412 -213.11 244.121 -215.751 239.825 -218.383L233.391 -222.326C228.761 -225.161 224.135 -227.994 219.508 -230.842L115.133 -293.268L130.332 -301.692ZM725.842 191.075L606.672 119.801L598.643 115.046C592.903 111.644 587.161 108.242 581.413 104.844L572.783 99.751L570.562 98.448C560.825 92.745 549.653 86.395 537.928 80.97C525.683 75.364 512.59 71.187 499.013 68.553C486.302 66.087 472.16 64.418 455.777 63.45C450.641 63.146 445.425 62.873 440.273 62.613L427.57 61.979C422.067 61.701 416.496 61.407 411.016 61.076C394.733 60.093 380.764 58.286 368.311 55.556C354.385 52.501 341.869 47.69 331.111 41.258L330.894 41.128C320.217 34.712 310.144 26.031 300.959 15.322C292.659 5.64899 284.502 -5.73801 276.022 -19.488C272.437 -25.294 268.844 -31.246 265.336 -37.074L260.084 -45.801C257.726 -49.7183 255.353 -53.6267 252.965 -57.526C244.453 -71.41 236.402 -83.007 228.352 -92.98C219.701 -103.699 209.99 -113.225 199.486 -121.298C188.862 -129.418 177.575 -136.508 166.96 -142.963C159.509 -147.483 152.052 -151.993 144.589 -156.493L133.793 -163.003L11.777 -235.977L26.968 -244.397L141.494 -175.905L142.24 -175.455C153.021 -168.953 163.833 -162.435 174.647 -155.862L178.008 -153.809C187.588 -147.936 197.609 -141.568 207.165 -134.565C217.848 -126.689 227.643 -117.676 236.377 -107.683C244.75 -98.094 252.993 -86.976 261.577 -73.696C265.37 -67.83 269.163 -61.797 272.886 -55.835L276.583 -49.905C279.4 -45.385 282.217 -40.864 285.052 -36.367L286.465 -34.14C294.686 -21.273 302.502 -10.59 310.311 -1.53699C319.41 9.01602 329.36 17.638 339.903 24.108L340.981 24.761C351.934 31.307 364.641 36.213 378.748 39.344C389.581 41.747 401.673 43.499 415.56 44.672C417.544 44.84 419.564 44.996 421.623 45.14L430.309 45.727L444.116 46.634C451.373 47.116 458.729 47.627 465.936 48.225C481.803 49.544 495.609 51.612 508.139 54.548C521.083 57.585 533.803 62.091 545.944 67.941C556.811 73.203 567.163 79.029 579.211 86.098L584.103 88.978L592.367 93.861L601.305 99.156C605.74 101.786 610.11 104.38 614.36 106.906L726.145 173.763L725.843 191.075H725.842ZM725.718 200.039L716.337 205.239L597.926 134.421L593.218 131.626C586.75 127.787 580.278 123.945 573.795 120.108L564.064 114.358C553.791 108.304 541.767 101.378 529.067 95.77C517.011 90.485 503.741 86.6 489.625 84.22C476.951 82.083 462.677 80.64 445.99 79.809C442.864 79.654 439.734 79.507 436.603 79.362L424.269 78.793C416.587 78.433 408.799 78.041 401.171 77.553C385.093 76.524 371.175 74.634 358.624 71.778C345.157 68.708 332.973 64.018 322.392 57.832L321.292 57.179C310.607 50.759 300.503 42.133 291.257 31.54C282.831 21.888 274.623 10.586 266.163 -3.01001C260.658 -11.856 255.184 -21.035 249.89 -29.914C247.655 -33.664 245.42 -37.411 243.178 -41.144C234.641 -55.35 226.726 -67.164 218.978 -77.257C210.318 -88.531 200.785 -98.356 190.638 -106.461C180.228 -114.716 168.908 -121.861 158.225 -128.35C150.472 -133.051 142.713 -137.741 134.946 -142.419L125.053 -148.379L5.46301 -219.902L5.68298 -232.597L9.74304 -234.849L132.751 -161.283L133.65 -160.741C144.38 -154.271 155.14 -147.781 165.907 -141.248C176.503 -134.802 187.755 -127.731 198.256 -119.705C208.632 -111.73 218.231 -102.313 226.782 -91.716C234.772 -81.816 242.776 -70.29 251.248 -56.476C253.618 -52.611 256 -48.674 258.352 -44.772L265.364 -33.123C268.319 -28.2103 271.3 -23.3133 274.306 -18.432C282.862 -4.564 291.079 6.90402 299.426 16.631C308.516 27.221 318.466 35.864 329.02 42.343L330.071 42.98C341.025 49.526 353.741 54.416 367.869 57.514C380.416 60.268 394.488 62.088 410.883 63.08C417.454 63.475 424.153 63.818 430.708 64.146L440.123 64.616C445.283 64.876 450.507 65.149 455.648 65.452C471.946 66.416 486.002 68.075 498.62 70.522C512.062 73.132 525.003 77.26 537.078 82.794C548.426 88.044 559.148 94.061 571.757 101.481C583.039 108.131 594.29 114.807 605.521 121.471L725.836 193.428L725.718 200.039ZM699.085 214.784L589.157 149.041C577.883 142.331 566.598 135.637 555.304 128.961L552.791 127.481C542.679 121.542 531.872 115.457 520.22 110.501C508.26 105.452 494.886 101.741 480.466 99.474C467.769 97.477 453.877 96.128 436.747 95.226L422.08 94.463C412.131 93.938 402.02 93.363 392.164 92.596C376.337 91.366 362.542 89.276 349.988 86.209C336.303 82.868 323.878 77.894 313.051 71.426L312.814 71.283C302.084 64.836 291.918 56.318 282.592 45.961C273.987 36.401 265.66 25.302 257.137 12.028C250.975 2.42801 244.892 -7.582 238.978 -17.367L233.936 -25.713L232.649 -27.833C224.757 -40.776 217.769 -51.278 210.838 -60.609L209.826 -61.967C201.126 -73.559 191.697 -83.557 181.801 -91.683C172.169 -99.572 161.911 -106.207 149.471 -113.745C138.42 -120.431 127.359 -127.102 116.289 -133.757L5.104 -200.254L5.40601 -217.592L124.008 -146.662L141.032 -136.397C146.415 -133.149 151.795 -129.896 157.171 -126.637L159.955 -124.94C169.745 -118.943 179.947 -112.375 189.377 -104.892C199.399 -96.892 208.819 -87.182 217.374 -76.035L218.66 -74.346C225.958 -64.686 233.428 -53.462 241.447 -40.11C242.93 -37.642 244.409 -35.167 245.887 -32.69L248.104 -28.971C253.42 -20.056 258.916 -10.838 264.448 -1.94901C272.973 11.741 281.243 23.127 289.733 32.858C298.853 43.314 308.817 51.888 319.365 58.362L320.472 59.032C331.432 65.584 344.113 70.529 358.162 73.732C370.798 76.612 384.819 78.515 401.026 79.553C408.656 80.041 416.44 80.433 424.117 80.793L431.749 81.146C436.461 81.363 441.172 81.578 445.874 81.812L448.618 81.955C464.042 82.795 477.368 84.186 489.276 86.195C503.232 88.548 516.344 92.387 528.246 97.606C539.981 102.786 551.157 109.118 560.893 114.828L563.031 116.086C569.311 119.792 575.587 123.505 581.858 127.226L596.876 136.137L714.286 206.358L699.085 214.784ZM681.875 224.347L546.632 143.462L543.203 141.479C533.549 135.909 522.826 129.899 511.45 125.171C499.594 120.245 486.196 116.577 471.628 114.271L469.873 113.998C458.112 112.204 445.13 110.865 429.289 109.811L419.724 109.184C407.828 108.396 395.713 107.538 383.96 106.374C368.433 104.835 354.802 102.472 342.286 99.15C328.801 95.57 316.448 90.458 305.572 83.959L305.314 83.804C294.543 77.332 284.298 68.948 274.858 58.881C266.038 49.472 257.545 38.645 248.897 25.779C242.086 15.642 235.491 5.18201 229.082 -5.09299L225.26 -11.231C216.226 -25.744 208.512 -37.165 200.982 -47.173C192.204 -58.839 182.803 -68.879 173.041 -77.011C162.525 -85.771 150.856 -93.027 140.743 -99.142C129.667 -105.84 118.6 -112.494 107.551 -119.137L4.76599 -180.609L5.06799 -197.939L115.266 -132.035C126.302 -125.395 137.366 -118.731 148.439 -112.027L150.806 -110.587C162.116 -103.679 171.611 -97.44 180.536 -90.131C190.32 -82.09 199.637 -72.208 208.232 -60.759L208.772 -60.036L209.312 -59.308C216.562 -49.531 223.874 -38.478 232.219 -24.684L235.302 -19.586C237.342 -16.2074 239.386 -12.8314 241.435 -9.45801C244.369 -4.62802 247.333 0.220001 250.331 5.01599C251.073 6.203 251.821 7.36902 252.567 8.548L254.489 11.594L255.458 13.114C264.034 26.477 272.425 37.66 281.112 47.307C290.302 57.513 300.303 65.962 310.857 72.439L312.031 73.151C323.026 79.72 335.639 84.771 349.517 88.161C362.182 91.253 376.082 93.359 392.014 94.598C401.882 95.366 411.998 95.941 421.949 96.466L436.648 97.232C453.668 98.123 467.494 99.466 480.16 101.457C494.418 103.7 507.637 107.365 519.445 112.35C531.939 117.664 543.511 124.324 554.293 130.69C565.603 137.37 576.882 144.072 588.14 150.768L697.07 215.915L681.874 224.347H681.875ZM664.633 233.884L537.888 158.082L534.463 156.089C524.818 150.491 514.106 144.45 502.747 139.711C490.959 134.791 477.611 131.046 463.074 128.581L461.442 128.308C450.222 126.459 437.656 124.948 422.222 123.588L419.942 123.39C414.812 122.951 409.728 122.51 404.687 122.049L402.005 121.801C399.768 121.591 397.543 121.377 395.325 121.157C392.003 120.827 388.683 120.479 385.365 120.113C383.733 119.931 382.105 119.745 380.483 119.553L376.396 119.061C361.158 117.153 347.714 114.478 335.295 110.883C322.009 107.037 309.736 101.778 298.818 95.255C287.898 88.719 277.468 80.43 267.83 70.592C258.812 61.389 250.134 50.872 241.3 38.439C240.088 36.731 238.885 35.017 237.69 33.297C231.784 24.801 225.975 16.025 220.4 7.49701L215.737 0.350006C209.493 -9.18698 203.922 -17.307 198.665 -24.522L198.103 -25.292C196.238 -27.8421 194.341 -30.369 192.413 -32.872C183.493 -44.448 174.047 -54.407 164.338 -62.469C154.361 -70.752 143.819 -77.404 132.057 -84.631L4.422 -160.964L4.72595 -178.294L106.534 -117.406C117.567 -110.772 128.632 -104.12 139.708 -97.421L141.808 -96.148C151.35 -90.344 162.068 -83.539 171.76 -75.465C181.396 -67.439 190.69 -57.513 199.384 -45.961L200.427 -44.567C207.569 -34.974 214.954 -23.99 223.56 -10.166L227.4 -3.99899C233.838 6.32101 240.454 16.815 247.238 26.903C255.948 39.863 264.505 50.773 273.398 60.257C282.674 70.152 292.724 78.443 303.29 84.924L304.546 85.684C315.579 92.279 328.104 97.462 341.772 101.091C354.39 104.443 368.124 106.824 383.762 108.372C396.764 109.661 410.192 110.574 423.282 111.432L427.965 111.737L431.499 111.975C446.994 113.054 459.723 114.424 471.314 116.255C485.711 118.531 498.956 122.155 510.681 127.027C523.301 132.271 535.166 139.142 545.621 145.197L679.832 225.466L664.633 233.884ZM647.426 243.443L529.146 172.704L524.561 170.024C515.227 164.594 504.936 158.809 494.121 154.166C482.281 149.085 469.417 145.261 454.792 142.477L453.242 142.186C441.831 140.065 429.398 138.286 413.332 136.474L407.617 135.832C395.637 134.476 382.261 132.877 369.369 130.886C354.422 128.578 341.172 125.576 328.86 121.71C315.786 117.607 303.593 112.204 292.622 105.647L292.348 105.482L290.996 104.643C290.161 104.13 289.327 103.619 288.497 103.088C280.759 98.114 273.253 92.337 266.109 85.851C265.749 85.524 265.383 85.207 265.023 84.876L264.779 84.644C263.625 83.576 262.485 82.4933 261.359 81.396C252.146 72.412 243.271 62.219 234.226 50.233L232.718 48.226C225.447 38.504 218.364 28.423 210.182 16.561L208.086 13.524C198.83 0.145996 191.389 -9.948 184.107 -19.014C174.866 -30.516 165.572 -40.008 155.693 -48.034C145.588 -56.241 134.613 -63.111 123.313 -70.01L4.08496 -141.315L4.38794 -158.651L131.025 -82.914L134.877 -80.538C145.033 -74.244 154.287 -68.212 163.066 -60.922C172.663 -52.952 182.006 -43.101 190.836 -31.642C193.456 -28.2372 196.02 -24.7901 198.527 -21.302L199.409 -20.073C204.141 -13.453 209.166 -6.05701 214.733 2.46899L218.296 7.936C224.129 16.869 230.242 26.116 236.531 35.136C237.572 36.63 238.62 38.1194 239.675 39.604C248.566 52.121 257.31 62.717 266.406 71.999C275.782 81.566 285.893 89.695 296.481 96.181L297.798 96.979C308.863 103.591 321.292 108.917 334.743 112.811C347.263 116.436 360.808 119.131 376.153 121.051L377.801 121.244C381.621 121.711 385.445 122.145 389.273 122.547C391.23 122.754 393.193 122.955 395.165 123.15L398.436 123.47L403.16 123.917L404.604 124.049C408.371 124.393 412.151 124.73 415.959 125.062L422.047 125.588C438.169 127.008 451.151 128.595 462.743 130.561C477.133 133.001 490.333 136.701 501.983 141.563C514.611 146.833 526.447 153.735 536.88 159.82L662.62 235.021L647.426 243.443ZM612.966 262.53L511.673 201.95L508.204 199.901C505.947 198.569 503.687 197.243 501.424 195.923L498.732 194.357L497.156 193.448L494.485 191.916C488.748 188.643 483.082 185.518 477.261 182.503L477.195 182.471C464.645 177.054 451.728 172.633 438.804 169.331L436.57 168.768C426.329 166.218 415.12 163.868 400.904 161.291L391.449 159.596C389.911 159.319 388.397 159.045 386.902 158.772L383.169 158.085L380.654 157.615L377.063 156.939L375.267 156.595L371.992 155.96L370.041 155.575L366.744 154.917L364.956 154.551L361.431 153.823C360.481 153.624 359.537 153.419 358.591 153.215C357.855 153.058 357.117 152.903 356.384 152.742C341.997 149.598 329.131 145.945 317.049 141.579C313.869 140.429 310.729 139.213 307.639 137.933C298.469 134.13 289.714 129.751 281.507 124.866L281.227 124.704C271.307 118.724 261.617 111.724 252.441 103.81L251.297 102.815C250.692 102.285 250.081 101.763 249.479 101.225C239.926 92.674 230.661 83.122 221.154 72.023C212.682 62.137 204.299 51.684 196.433 41.739L193.403 37.905C183.571 25.503 175.702 16.145 168.048 7.745C159.137 -2.03 149.29 -11.279 138.727 -19.79C128.87 -26.653 118.593 -33.027 109.377 -38.617L105.644 -40.874L3.396 -102.023L3.698 -119.361L113.54 -53.67L116.896 -51.629C126.461 -45.796 136.46 -39.532 146.103 -32.585C156.309 -23.9037 165.8 -14.415 174.483 -4.211L175.962 -2.461C182.883 5.77899 190.112 15.051 199.024 27.124L200.309 28.868C208.39 39.854 217.093 51.548 225.991 62.618C235.315 74.221 244.448 84.158 253.916 92.999C263.816 102.246 274.413 110.285 285.419 116.898L285.779 117.113C296.909 123.763 309.155 129.367 322.181 133.768C334.47 137.922 347.616 141.274 362.371 144.015C375.094 146.377 387.898 148.332 403.053 150.503L404.576 150.721C421.684 153.166 434.551 155.405 446.296 157.978C459.505 160.878 472.451 164.868 485.001 169.907C496.573 175.687 507.871 182.262 519.383 189.05L628.16 254.108L612.965 262.53H612.966ZM593.703 273.214L578.507 281.636L494.181 231.204C483.894 225.048 473.785 219.031 463.507 213.227L460.032 211.277C448.27 205.457 435.914 200.136 423.265 195.447C411.562 191.692 399.209 188.129 385.557 184.568L377.297 182.427C366.335 179.58 355.14 176.628 344.095 173.454C330.184 169.454 317.685 165.177 305.883 160.378C293.944 155.52 282.503 149.885 271.85 143.615L269.971 142.498C259.082 135.956 248.411 128.381 238.245 119.978C228.435 111.873 218.792 102.935 208.764 92.654L206.885 90.723C199.082 82.676 191.546 74.579 182.863 65.184L180.757 62.904C170.764 52.085 161.5 42.548 152.403 33.718C142.433 24.848 132.054 16.517 121.513 8.92599C111.219 2.25598 100.596 -4.17599 90.493 -10.229L2.703 -62.732L3.005 -80.061L98.585 -22.897C109.874 -16.122 119.505 -10.193 128.985 -3.854C139.219 3.914 149.315 12.574 158.955 21.854L160.731 23.754C168.449 32.049 176.491 41.116 185.221 51.369L191.103 58.279C199.037 67.57 206.125 75.712 213.451 83.735C223.287 94.5 232.798 103.802 242.531 112.169C247.59 116.521 252.828 120.66 258.231 124.576C259.109 125.211 259.993 125.829 260.878 126.452L262.182 127.374C263.116 128.022 264.056 128.651 264.996 129.281L266.276 130.146L267.205 130.749L268.136 131.349C268.946 131.873 269.755 132.399 270.568 132.911L271.004 133.179C272.118 133.877 273.234 134.57 274.354 135.244L274.808 135.514C285.98 142.184 298.064 148.033 310.723 152.896C322.759 157.523 335.518 161.51 349.726 165.084C362.519 168.304 375.763 171.224 387.476 173.752L390.371 174.375C405.225 177.569 418.407 180.729 430.621 184.019C443.531 188.242 456.034 193.155 467.781 198.622C478.868 204.612 489.676 210.995 499.861 217.088L593.703 273.214ZM559.253 292.3L544.054 300.726L466.599 254.406C458.665 249.661 450.713 244.947 442.743 240.263C431.134 233.874 419.292 227.918 407.241 222.408C395.449 217.497 383.183 212.752 369.73 207.898L356.71 203.356C348.381 200.444 339.932 197.469 331.633 194.455C318.062 189.522 305.927 184.621 294.535 179.472C282.327 173.952 270.534 167.806 259.483 161.204C248.193 154.43 237.292 147.027 226.833 139.029C216.9 131.441 206.879 123.113 196.197 113.569C188.147 106.379 180.057 98.974 172.172 91.739L166.522 86.552C156.029 77.115 146.147 68.612 136.284 60.534C125.869 52.5761 115.165 45.0044 104.193 37.834L101.198 36.002C90.711 29.599 80.2079 23.317 70.8459 17.722L2.021 -23.438L2.32397 -40.777L78.626 4.85501C86.536 9.58502 94.313 14.253 101.993 18.967L104.917 20.771L107.832 22.581C109.142 23.396 110.461 24.206 111.766 25.027C122.543 32.4164 132.991 40.2732 143.082 48.575C152.657 57.082 162.484 66.328 172.287 76.055L181.493 85.192C187.967 91.609 194.571 98.115 201.171 104.432L202.198 105.409L203.223 106.377C211.865 114.567 220.18 121.89 228.491 128.625L229.738 129.631C230.282 130.068 230.828 130.513 231.372 130.946C241.412 138.928 251.85 146.246 262.503 152.676L264.03 153.59C275.152 160.235 287.086 166.31 299.498 171.643C311.136 176.643 323.51 181.253 337.325 185.737C340.069 186.627 342.831 187.51 345.601 188.386C347.081 188.853 348.564 189.314 350.046 189.776C351.282 190.163 352.518 190.553 353.755 190.936C357.162 191.993 360.565 193.04 363.947 194.076L376.26 197.839C389.577 201.917 402.478 206.257 414.568 210.729C426.769 215.788 438.739 221.387 450.443 227.509C460.439 233.245 470.225 239.059 480.84 245.405L559.253 292.3ZM2.36694 -43.08L2.67004 -60.411L87.301 -9.798C97.927 -3.44202 109.241 3.367 120.378 10.581C130.818 18.101 141.144 26.389 151.035 35.187C160.068 43.958 169.307 53.469 179.281 64.265L183.846 69.205C191.222 77.175 199.25 85.784 207.326 94.055C217.408 104.39 227.102 113.375 236.962 121.525C247.202 129.989 257.952 137.619 268.919 144.209L269.431 144.515C280.561 151.167 292.57 157.128 305.121 162.237C316.989 167.065 329.554 171.366 343.535 175.38C356.932 179.227 370.959 182.86 383.333 186.065L386.501 186.891C399.601 190.334 411.452 193.765 422.604 197.341C435.15 201.994 447.441 207.286 459.094 213.05C470.533 219.433 481.728 226.092 493.142 232.923L576.48 282.763L561.288 291.182L477.887 241.309C468.934 235.969 460.871 231.2 452.567 226.423L451.4 225.753C439.623 219.589 427.576 213.954 415.295 208.865C403.133 204.367 390.195 200.014 376.842 195.925L364.155 192.047C360.932 191.06 357.688 190.063 354.441 189.055C348.929 187.35 343.428 185.609 337.939 183.832C324.182 179.367 311.866 174.778 300.285 169.802C287.953 164.505 276.101 158.472 265.052 151.871C254.032 145.296 243.094 137.704 232.619 129.382L231.734 128.672L230.849 127.958C222.401 121.16 213.956 113.765 205.173 105.47L203.432 103.823C203.141 103.547 202.849 103.269 202.557 102.989C195.945 96.656 189.322 90.133 182.83 83.698L173.7 74.637C163.865 64.88 154.012 55.611 144.385 47.057C134.23 38.7008 123.714 30.7932 112.867 23.357L111.52 22.52C102.21 16.691 92.794 11.005 83.197 5.259L71.3621 -1.82101L2.36694 -43.081V-43.08ZM3.35803 -99.715L104.612 -39.161L108.335 -36.909C117.524 -31.337 127.765 -24.985 137.524 -18.192C147.95 -9.78998 157.721 -0.612 166.567 9.09L167.581 10.207C174.691 18.067 182.093 26.885 191.203 38.354L196.558 45.121C203.941 54.432 211.745 64.118 219.631 73.323C229.201 84.491 238.528 94.106 248.141 102.713C248.663 103.181 249.195 103.633 249.721 104.096C250.468 104.751 251.211 105.412 251.963 106.056L252.25 106.296C260.674 113.469 269.503 119.894 278.579 125.441L280.02 126.313L280.484 126.585C288.762 131.515 297.603 135.938 306.873 139.78C310.011 141.08 313.178 142.308 316.373 143.462C328.51 147.854 341.459 151.528 355.96 154.698L357.059 154.935L361.018 155.779L362.723 156.132C363.932 156.382 365.143 156.633 366.362 156.88L369.61 157.529L372.288 158.055L375.467 158.67L378.717 159.287L381.717 159.85L386.695 160.767L391.764 161.686L400.548 163.261C415.763 166.017 427.513 168.512 438.313 171.271C451.093 174.535 463.897 178.916 476.372 184.296L478.276 185.296C479.07 185.714 479.866 186.127 480.657 186.549L481.763 187.148C482.832 187.72 483.899 188.296 484.963 188.877L486.053 189.481C487.109 190.063 488.165 190.645 489.218 191.235L490.828 192.145C491.705 192.638 492.581 193.131 493.456 193.631L496.5 195.379L498.58 196.581C502.592 198.911 506.604 201.279 510.64 203.672L610.937 263.656L595.743 272.079L502.933 216.574C492.068 210.071 480.473 203.191 468.66 196.814C456.814 191.302 444.227 186.354 431.202 182.094C418.905 178.782 405.69 175.614 390.802 172.412L385.877 171.35C374.304 168.845 362.19 166.152 350.224 163.138C336.116 159.586 323.432 155.624 311.449 151.02C298.876 146.19 286.895 140.394 275.842 133.79C264.832 127.234 254.038 119.41 243.842 110.644C234.148 102.308 224.693 93.063 214.936 82.379C206.62 73.276 198.59 63.963 190.994 55.048L185.741 48.878C176.691 38.289 168.387 28.974 160.387 20.442C150.622 11.046 140.466 2.33301 130.155 -5.491C119.852 -12.378 109.474 -18.728 97.085 -26.142L3.05505 -82.374L3.35803 -99.715ZM122.284 -68.291C133.53 -61.424 144.451 -54.591 154.437 -46.472C164.21 -38.528 173.407 -29.134 182.553 -17.754L183.52 -16.544C190.46 -7.832 197.623 1.92001 206.446 14.669L211.053 21.339C218.765 32.479 225.573 42.089 232.633 51.446C241.741 63.512 250.682 73.779 259.966 82.836C261.946 84.768 263.964 86.626 266.001 88.443C266.493 88.881 266.981 89.333 267.476 89.764L268.4 90.548C274.506 95.805 280.848 100.558 287.374 104.744C288.385 105.394 289.406 106.019 290.427 106.644L291.599 107.371C302.707 114.009 315.043 119.477 328.266 123.625C340.673 127.522 354.02 130.546 369.068 132.869C380.87 134.693 393.066 136.187 404.231 137.467L414.201 138.592C430.442 140.442 442.923 142.26 454.423 144.45C468.893 147.202 481.622 150.983 493.335 156.011C505.875 161.394 517.705 168.326 528.133 174.439L645.38 244.561L630.185 252.983L520.406 187.327L516.821 185.217C506.156 178.957 496.261 173.289 485.782 168.059C473.118 162.972 460.054 158.946 446.724 156.02L445.204 155.69C434.527 153.395 422.898 151.36 408.082 149.2L399.262 147.932C387.844 146.28 375.16 144.353 362.735 142.044C348.075 139.319 335.016 135.991 322.817 131.868C309.928 127.511 297.811 121.968 286.804 115.391L286.552 115.24C285.959 114.882 285.37 114.507 284.78 114.142L283.347 113.261C283.108 113.113 282.871 112.963 282.634 112.812C276.616 108.972 270.734 104.702 265.034 100.045L262.789 98.199C262.414 97.884 262.047 97.555 261.673 97.235C259.5 95.381 257.369 93.4799 255.279 91.533C245.902 82.779 236.831 72.91 227.549 61.36C219.299 51.096 211.169 40.229 203.545 29.885L201.919 27.677C191.736 13.83 183.744 3.595 176.005 -5.51099C167.236 -15.8188 157.648 -25.4007 147.335 -34.163C136.435 -42.019 125.174 -48.954 114.57 -55.389L3.73596 -121.673L4.04102 -139.007L122.284 -68.291ZM3.70398 -233.786L3.48401 -221.073L3.46704 -221.083L3.08301 -199.132L3.08801 -199.129L2.40405 -159.842L2.40796 -159.84L2.10498 -142.499L2.10095 -142.501L1.71704 -120.551L1.71899 -120.55L1.375 -100.901L1.37805 -100.899L1.07495 -83.546L1.06702 -83.551L0.68396 -61.599L0.69104 -61.594L0.387939 -44.264L0.38501 -44.266L0 -22.316L80.946 26.097C88.3601 30.5364 95.7525 35.0118 103.123 39.523C114.036 46.6562 124.683 54.1879 135.043 62.103C144.855 70.139 154.716 78.622 165.176 88.032L167.873 90.508C176.686 98.598 185.798 106.962 194.865 115.062C205.585 124.639 215.645 132.998 225.619 140.62C235.519 148.183 245.745 155.19 256.054 161.47L258.456 162.92C269.573 169.562 281.434 175.744 293.711 181.293C305.15 186.464 317.331 191.385 330.951 196.335C339.259 199.352 347.713 202.33 356.047 205.243L369.061 209.783C382.473 214.623 394.711 219.356 406.441 224.241C418.428 229.724 430.207 235.648 441.756 242.001L444.741 243.756C452.376 248.257 459.996 252.782 467.601 257.333L544.016 303.033L561.239 293.487L561.247 293.492L580.495 282.824L580.492 282.823L597.71 273.279L597.706 273.277L614.953 263.718L614.95 263.717L632.168 254.173H632.166L647.364 245.747L647.379 245.757L666.629 235.087L666.611 235.077L681.817 226.652L681.827 226.659L701.077 215.979L701.065 215.973L716.285 207.538L716.299 207.548L727.697 201.228L727.857 192.278L727.824 192.259L728.125 174.933L728.146 174.945L728.53 152.994L728.512 152.983L728.816 135.636L728.833 135.646L729.216 113.694L729.211 113.691L729.514 96.357L729.517 96.359L729.899 74.407L729.889 74.401L730.232 54.765L600.198 -23.005C597.316 -24.5934 594.438 -26.1898 591.565 -27.794L581.905 -33.184C577.418 -35.684 572.864 -38.206 568.311 -40.671L565.578 -42.142C554.323 -48.169 542.338 -54.111 529.956 -59.802L526.346 -61.446C517.586 -65.409 508.079 -69.55 496.321 -74.522L489.943 -77.214C480.337 -81.281 468.5 -86.392 456.849 -91.859C444.232 -97.772 432.802 -103.815 421.906 -110.332C411.472 -116.546 401.227 -123.418 390.594 -131.265L389.141 -132.341C379.151 -139.767 369.394 -147.489 361.439 -153.882L353.501 -160.279C345.681 -166.565 336.235 -174.065 326.651 -181.329C315.911 -189.473 305.109 -197.17 294.547 -204.206C289.394 -207.638 284.141 -211.036 278.961 -214.361L273.811 -217.661C269.754 -220.255 265.704 -222.861 261.662 -225.478L130.37 -304L95.922 -284.904H95.92L42.212 -255.134L42.218 -255.131L27.01 -246.702L27.005 -246.705L3.703 -233.786H3.70398Z" fill="url(#paint0_linear)"/>
<defs>
<linearGradient id="paint0_linear" x1="174.927" y1="-132.015" x2="489.654" y2="225.319" gradientUnits="userSpaceOnUse">
<stop stop-color="#6163FF" stop-opacity="0"/>
<stop offset="0.53022" stop-color="#6163FF" stop-opacity="0.32"/>
<stop offset="1" stop-color="#6163FF" stop-opacity="0"/>
</linearGradient>
</defs>
</svg>
