<svg width="340" height="340" viewBox="0 0 340 340" fill="none" xmlns="http://www.w3.org/2000/svg">
<path d="M287.607 170.208C287.607 248.25 224.339 311.521 146.293 311.521C68.248 311.521 4.98047 248.25 4.98047 170.208C4.98047 92.162 68.248 28.8945 146.293 28.8945C224.339 28.8945 287.607 92.162 287.607 170.208Z" fill="#FFDB2A"/>
<path d="M246.234 70.2661C213.428 37.4598 168.539 24.1786 125.972 30.3549C155.126 34.539 183.149 47.8877 205.527 70.2661C260.712 125.448 260.712 214.964 205.527 270.149C183.149 292.527 155.058 305.876 125.972 310.057C168.604 316.234 213.496 302.888 246.234 270.149C301.416 214.964 301.416 125.448 246.234 70.2661Z" fill="#DCBB1A"/>
<path d="M148.418 316.501C147.821 316.501 147.222 316.366 146.625 316.169C144.034 315.173 142.773 312.317 143.769 309.725C171.46 238.206 218.544 175.984 279.835 129.765C282.026 128.104 285.147 128.571 286.807 130.761C288.467 132.953 288.003 136.073 285.811 137.733C225.981 182.825 180.028 243.586 152.999 313.378C152.335 315.305 150.41 316.501 148.418 316.501Z" fill="black"/>
<path d="M121.06 262.712C120.328 262.712 119.664 262.577 118.935 262.245C116.411 261.052 115.348 258.128 116.543 255.604C148.418 187.605 198.423 129.567 261.242 87.7315C263.501 86.2036 266.621 86.8002 268.149 89.1245C269.677 91.3838 269.078 94.5044 266.754 96.0323C205.46 136.872 156.652 193.515 125.576 259.856C124.712 261.648 122.919 262.712 121.06 262.712V262.712Z" fill="black"/>
<path d="M102.531 309.593C102.002 309.593 101.47 309.528 101.005 309.329C98.414 308.465 96.9536 305.676 97.8174 303.02C101.005 293.259 104.59 283.562 108.442 274.066C109.503 271.542 112.427 270.281 114.951 271.345C117.472 272.406 118.735 275.329 117.672 277.851C113.887 287.083 110.367 296.579 107.314 306.073C106.582 308.265 104.658 309.593 102.531 309.593Z" fill="black"/>
<path d="M61.9577 288.61C61.4933 288.61 60.9616 288.543 60.4972 288.411C57.841 287.614 56.378 284.823 57.1769 282.167C71.5191 235.218 93.8327 191.79 123.383 153.007C152.999 114.159 189.126 81.0908 230.694 54.7255C233.019 53.265 236.074 53.9291 237.602 56.2533C239.063 58.5775 238.399 61.6333 236.074 63.1611C154.926 114.626 94.8287 193.45 66.7384 285.155C66.0069 287.215 64.0821 288.61 61.9577 288.61V288.61Z" fill="black"/>
<path d="M26.7626 250.559C26.2308 250.559 25.699 250.492 25.1673 250.292C22.5785 249.431 21.1829 246.575 22.0467 243.983C36.5912 200.487 58.0384 160.114 85.7967 123.923C113.555 87.7314 147.09 56.453 185.474 31.0864C187.798 29.5585 190.851 30.2226 192.379 32.4793C193.907 34.8036 193.243 37.8593 190.986 39.3871C115.347 89.4564 60.1654 161.307 31.4759 247.171C30.747 249.296 28.8196 250.559 26.7626 250.559V250.559Z" fill="black"/>
<path d="M38.7153 219.081C37.2549 219.081 35.7918 218.417 34.7958 217.156C27.2939 207.46 20.0541 197.302 13.4135 186.941C9.0322 180.101 4.78064 173.064 0.796269 165.956C-0.531856 163.567 0.331944 160.511 2.72361 159.183C5.11268 157.855 8.1684 158.719 9.49653 161.11C13.4135 168.016 17.5301 174.921 21.7817 181.629C28.29 191.722 35.2627 201.683 42.6322 211.112C44.2924 213.304 43.9603 216.425 41.7684 218.085C40.8398 218.749 39.7762 219.081 38.7153 219.081Z" fill="black"/>
<path d="M58.038 179.901C56.5127 179.901 54.9848 179.172 53.9887 177.844C49.6049 171.735 45.2885 165.427 41.2393 159.118C31.3432 143.71 22.3783 127.375 14.5419 110.706C13.3486 108.182 14.477 105.262 16.9335 104.066C19.4575 102.87 22.3783 104.001 23.5742 106.457C31.2109 122.727 39.976 138.665 49.6049 153.671C53.5893 159.847 57.7734 166.023 62.0898 171.932C63.6825 174.192 63.2182 177.245 60.9614 178.905C60.0976 179.637 59.1015 179.901 58.038 179.901Z" fill="black"/>
<path d="M203.935 304.348C203.203 304.348 202.407 304.148 201.675 303.816C187.798 296.776 174.249 288.942 161.3 280.442C158.976 278.914 158.379 275.858 159.907 273.534C161.435 271.21 164.488 270.613 166.812 272.074C179.429 280.374 192.711 288.011 206.192 294.919C208.648 296.18 209.644 299.168 208.384 301.624C207.452 303.352 205.727 304.348 203.935 304.348V304.348Z" fill="black"/>
<path d="M80.551 144.441C78.9557 144.441 77.4304 143.71 76.4343 142.317C73.9752 138.729 71.4539 135.012 69.1297 131.292C57.7057 113.495 47.5476 94.7041 38.9797 75.3114C37.8513 72.79 38.9797 69.8666 41.5036 68.7382C44.0276 67.6098 46.9484 68.7382 48.0768 71.2622C56.5125 90.1879 66.406 108.582 77.4953 125.915C79.8195 129.5 82.2112 133.152 84.6677 136.672C86.1955 138.929 85.6638 142.05 83.407 143.578C82.4757 144.177 81.4797 144.441 80.551 144.441Z" fill="black"/>
<path d="M240.323 280.707C239.594 280.707 238.863 280.574 238.198 280.242C218.012 270.613 198.487 259.257 180.225 246.575C177.969 244.979 177.437 241.926 178.965 239.667C180.557 237.41 183.613 236.878 185.87 238.406C203.735 250.824 222.725 261.848 242.45 271.277C244.907 272.473 245.967 275.461 244.774 277.918C243.975 279.646 242.183 280.707 240.323 280.707V280.707Z" fill="black"/>
<path d="M84.5354 77.3711C82.743 77.3711 81.0154 76.4424 80.1516 74.7148C76.1023 67.0781 72.1828 59.1768 68.5979 51.2729C67.4695 48.749 68.5305 45.8281 71.0544 44.6997C73.5784 43.5713 76.4992 44.6323 77.6276 47.1562C81.1477 54.8604 84.9323 62.562 88.9167 69.999C90.2448 72.4581 89.3162 75.4463 86.8596 76.707C86.1281 77.2388 85.3318 77.3711 84.5354 77.3711Z" fill="black"/>
<path d="M105.586 112.499C103.994 112.499 102.398 111.703 101.47 110.31C99.9418 108.05 98.414 105.726 96.9535 103.402C94.6293 99.7494 92.3051 96.0322 90.1132 92.3124C88.7202 89.9208 89.4491 86.8676 91.8408 85.4721C94.2298 84.0791 97.2856 84.808 98.6811 87.1997C100.87 90.852 103.13 94.4369 105.387 98.0244C106.847 100.281 108.31 102.538 109.835 104.73C111.363 106.989 110.767 110.11 108.507 111.638C107.511 112.234 106.582 112.499 105.586 112.499Z" fill="black"/>
<path d="M265.293 251.488C264.562 251.488 263.833 251.355 263.101 250.956C241.851 240.598 221.333 228.378 202.275 214.567C200.015 212.972 199.551 209.852 201.144 207.595C202.739 205.335 205.86 204.871 208.116 206.464C226.778 219.88 246.767 231.833 267.485 241.926C269.942 243.122 271.005 246.11 269.809 248.567C268.946 250.427 267.153 251.488 265.293 251.488V251.488Z" fill="black"/>
<path d="M133.012 84.0117C131.417 84.0117 129.824 83.2154 128.895 81.8198C127.567 79.7628 126.172 77.7031 124.844 75.5787C116.807 63.0938 109.37 49.9448 102.73 36.5987C101.534 34.1396 102.53 31.1513 104.989 29.8906C107.446 28.6948 110.434 29.6909 111.695 32.1474C118.203 45.1641 125.44 57.981 133.277 70.1987C134.605 72.2583 135.933 74.2505 137.261 76.2427C138.789 78.4995 138.192 81.6201 135.868 83.1479C134.937 83.7471 133.941 84.0117 133.012 84.0117Z" fill="black"/>
<path d="M281.163 217.556C280.366 217.556 279.57 217.356 278.838 216.957C260.976 207.527 243.71 196.77 227.508 184.882C225.316 183.289 224.785 180.169 226.445 177.909C228.038 175.72 231.161 175.188 233.417 176.848C249.223 188.469 266.089 199.027 283.554 208.191C286.011 209.452 286.942 212.508 285.614 214.899C284.683 216.624 282.958 217.556 281.163 217.556Z" fill="black"/>
<path d="M162.563 58.645C160.967 58.645 159.375 57.8487 158.446 56.4531C156.519 53.5971 154.526 50.6088 152.667 47.688C149.214 42.308 145.894 36.8633 142.706 31.351C141.313 28.962 142.176 25.9062 144.501 24.5781C146.89 23.1825 149.945 24.0463 151.274 26.3706C154.394 31.7505 157.647 37.1278 161.035 42.308C162.895 45.164 164.755 48.02 166.679 50.876C168.207 53.1328 167.608 56.2534 165.351 57.7812C164.487 58.3778 163.491 58.645 162.563 58.645Z" fill="black"/>
<path d="M287.607 177.577C286.743 177.577 285.812 177.312 285.015 176.848C275.055 170.804 265.226 164.231 255.797 157.391C253.605 155.798 253.076 152.675 254.736 150.418C256.328 148.226 259.449 147.694 261.708 149.354C270.87 156.062 280.499 162.438 290.196 168.348C292.52 169.808 293.316 172.864 291.856 175.188C290.927 176.716 289.267 177.577 287.607 177.577Z" fill="black"/>
<path d="M299.028 316.501H148.418C145.694 316.501 143.438 314.242 143.438 311.521C143.438 308.797 145.694 306.54 148.418 306.54H299.028C303.676 306.54 307.461 302.753 307.461 298.104C307.461 293.456 303.676 289.671 299.028 289.671H292.255C282.094 289.671 273.858 281.438 273.858 271.277V268.222C273.858 258.064 282.094 249.828 292.255 249.828H335.02C337.743 249.828 340 252.087 340 254.808C340 257.532 337.743 259.789 335.02 259.789H292.255C287.607 259.789 283.819 263.573 283.819 268.222V271.277C283.819 275.926 287.607 279.71 292.255 279.71H299.028C309.189 279.71 317.422 287.946 317.422 298.104C317.422 308.265 309.189 316.501 299.028 316.501V316.501Z" fill="black"/>
<path d="M146.293 316.501C107.179 316.501 70.4581 301.292 42.832 273.669C15.206 246.043 0 209.32 0 170.208C0 131.093 15.206 94.3721 42.832 66.7461C70.4581 39.1201 107.179 23.9141 146.293 23.9141C185.406 23.9141 222.129 39.1201 249.755 66.7461C277.378 94.3721 292.587 131.093 292.587 170.208C292.587 209.32 277.378 246.043 249.755 273.669C222.129 301.292 185.406 316.501 146.293 316.501ZM146.293 33.875C71.1221 33.875 9.96094 95.0362 9.96094 170.208C9.96094 245.379 71.1221 306.54 146.293 306.54C221.465 306.54 282.626 245.379 282.626 170.208C282.691 95.0362 221.465 33.875 146.293 33.875Z" fill="black"/>
</svg>
